# xmcd CD database file
#
# Track frame offsets:
#	183
#	10328
#	20970
#	35425
#	47403
#	55018
#	69078
#	77970
#	88028
#	102558
#	113815
#	130623
#	138360
#	150750
#	164913
#	180375
#	200600
#	213650
#
# Disc length: 2989 seconds
#
# Revision: 3
# Processed by: cddbd v1.5.2PL0 Copyright (c) Steve Scherf et al.
# Submitted via: CDex 1.70beta2
#
DISCID=f10bab12
DTITLE=Hugues Aufray - Hugues Aufray [CD1)
DYEAR=1990
DGENRE=Folk
TTITLE0=Santiano
TTITLE1=Je reviens
TTITLE2=N'y pensez plus, tout est bien
TTITLE3=A bientôt nous deux
TTITLE4=Guidez mes pas
TTITLE5=Des que le printemps reviens
TTITLE6=Debout les gars
TTITLE7=Pends-moi
TTITLE8=Le rossignol anglais
TTITLE9=Personne ne sait
TTITLE10=Le coeur gros
TTITLE11=Dou wakadou
TTITLE12=On est les rois
TTITLE13=L'homme orchestre
TTITLE14=Laisse-moi petite fille
TTITLE15=Cauchemar psychomoteur
TTITLE16=La fille du nord
TTITLE17=Le jour ou le bateau viendra
EXTD=YEAR: 1990
EXTT0=
EXTT1=
EXTT2=
EXTT3=
EXTT4=
EXTT5=
EXTT6=
EXTT7=
EXTT8=
EXTT9=
EXTT10=
EXTT11=
EXTT12=
EXTT13=
EXTT14=
EXTT15=
EXTT16=
EXTT17=
PLAYORDER=
